<svg width="316" height="290" viewBox="0 0 316 290" fill="none" xmlns="http://www.w3.org/2000/svg">
<path fill-rule="evenodd" clip-rule="evenodd" d="M174.515 0C256.297 0 273.515 113.338 273.849 114.271C274.194 115.232 274.519 116.221 274.833 117.181C275.471 119.13 276.291 121.007 276.929 122.944C277.32 124.125 278.037 125.104 278.518 126.219C279.45 128.351 280.593 130.385 281.929 132.291C282.48 133.045 282.914 133.88 283.214 134.764C283.425 135.441 284.124 135.622 284.426 136.22C284.915 137.187 285.566 138.071 286.129 139C286.258 139.327 286.553 139.559 286.901 139.608L286.791 140.53C286.995 140.862 287.064 140.413 287.278 140.492C287.545 140.852 287.926 141.171 287.965 141.719C288 142.234 288.601 142.283 288.807 142.732C289.258 143.707 290.513 144.204 290.494 145.484C291.396 146.05 291.84 147.022 292.52 147.785C292.87 148.136 293.082 148.598 293.123 149.089L293.129 149.203C293.124 149.691 294.067 149.581 293.813 150.247C295.256 151.33 295.631 153.1 296.393 154.565C297.614 156.917 299.023 159.19 299.853 161.765C300.268 163.054 301.075 164.272 301.523 165.577C302.53 168.509 303.74 171.378 304.395 174.431C304.665 175.693 305.217 176.895 305.475 178.16L305.773 179.622C306.217 181.816 306.638 184.015 306.917 186.238C307.061 186.74 307.061 187.272 306.917 187.773C306.676 188.344 307.315 188.71 307.367 189.282C307.431 189.962 307.159 190.605 307.355 191.326C307.462 191.723 307.355 192.362 307.479 192.823C307.88 194.322 307.372 195.868 307.809 197.357C307.878 197.933 307.817 198.516 307.631 199.065C307.329 200.898 307.882 202.77 307.33 204.56C307.072 205.443 307.023 206.372 307.185 207.276L307.254 207.624C307.302 207.882 307.335 208.133 307.208 208.307C306.705 208.995 306.835 209.805 306.735 210.557L306.716 210.682C306.571 211.524 306.72 212.406 306.466 213.264C306.119 214.103 305.924 214.998 305.89 215.905C306.019 217.445 305.5 218.826 305.183 220.255C305.025 220.969 305.156 221.818 304.37 222.349C303.97 222.619 304.913 223.144 304.341 223.539L304.274 223.581C303.855 223.818 303.873 224.2 303.991 224.658C304.099 225.076 303.368 225.366 303.577 225.794C303.786 226.222 303.881 226.845 303.636 226.924C303.026 227.125 303.647 227.789 303.134 227.915C303.083 227.942 303.049 227.991 303.04 228.048C302.865 229.656 301.829 230.976 301.573 232.582C301.379 233.542 301.006 234.456 300.472 235.277C300.03 236.07 299.654 236.897 299.349 237.752C298.774 239.189 297.792 240.389 297.238 241.818C297.088 242.205 296.085 242.076 296.595 242.87C296.01 243.077 296.188 243.682 295.953 244.061C295.694 244.347 295.392 244.591 295.058 244.785C294.842 245.636 294.428 246.424 293.85 247.086C292.84 248.564 291.737 249.976 290.549 251.314L289.567 252.414C288.254 253.88 286.899 255.314 285.17 256.324C284.725 256.584 284.927 257.077 284.562 257.344C282.441 258.909 280.488 260.685 278.075 261.872C277.066 262.369 276.2 263.251 275.168 263.769C273.212 264.75 271.396 265.973 269.304 266.737L268.932 266.867C267.599 267.311 266.287 267.983 264.935 268.47C262.156 269.562 259.256 270.315 256.297 270.715L254.471 270.917C252.849 271.097 251.224 271.262 249.585 271.307C248.809 271.328 248.065 271.082 247.355 271.171C246.663 271.258 245.961 271.201 245.293 271.004C244.764 270.857 244.317 271.311 243.749 271.067C243.312 270.794 242.771 270.753 242.3 270.952L242.207 270.995C241.937 271.151 241.407 270.863 240.995 270.77C240.396 270.686 239.807 270.541 239.238 270.336C238.798 270.132 238.235 270.787 237.928 270.09C237.371 270.523 199.482 261.52 164.677 279.803C161.843 281.681 158.526 282.505 155.497 283.964C154.089 284.644 152.507 284.954 150.991 285.418L150.668 285.52C147.992 286.384 145.249 286.974 142.509 287.591C139.992 288.136 137.442 288.515 134.875 288.725C133.029 288.892 131.175 288.97 129.334 289.171C128.587 289.252 127.855 288.726 127.125 289.177C125.484 288.731 123.76 289.273 122.123 288.768C121.035 289.091 120.012 288.691 119.011 288.396C118.248 288.17 117.528 288.64 116.756 288.306C116.054 287.94 115.267 287.765 114.475 287.8C113.161 288.001 112.017 287.519 110.82 287.264C108.038 286.672 105.267 286.032 102.505 285.343C101.601 285.117 100.585 285.204 99.8097 284.513C99.13 283.906 98.0572 284.286 97.3892 283.569C97.1454 283.309 96.8344 283.814 96.4673 283.617C95.7512 283.232 94.8307 283.486 94.1615 282.792C93.6658 282.279 92.7303 282.626 92.1815 282.006L92.1091 281.915C91.7853 281.465 90.9305 282.526 90.6777 281.524C89.6563 281.446 88.8099 280.889 87.9003 280.507C87.1469 280.193 86.2577 280.37 85.5777 279.714C84.9984 279.155 83.9034 279.566 83.4015 278.728C82.1737 278.718 81.2682 277.799 80.098 277.558C79.2098 277.325 78.3569 276.973 77.562 276.514C76.302 275.866 75.0225 275.255 73.7335 274.677C73.271 274.462 72.8208 274.221 72.3849 273.957C72.1405 273.814 72.0811 273.497 71.732 273.42C69.5216 272.93 67.6627 271.642 65.7747 270.515C64.6981 269.959 63.6679 269.318 62.6941 268.597L62.3715 268.354C62.0865 268.109 61.4946 267.989 61.244 267.648C60.5454 266.699 59.5004 266.235 58.5529 265.665L58.3959 265.569C57.8621 265.254 57.3769 264.864 56.9554 264.41C56.8757 264.324 56.8432 264.136 56.7585 264.115C55.1856 263.727 54.247 262.428 53.0445 261.52C52.01 260.739 51.1052 259.788 50.0867 258.992L49.6989 258.702C47.3152 256.997 21.2321 228.296 18.2766 223.343L17.4308 221.926C16.5862 220.505 15.7513 219.075 14.9826 217.616L14.328 216.374C13.6744 215.13 13.0311 213.876 12.4623 212.601L11.7014 210.899C10.1832 207.492 8.69763 204.069 7.43145 200.552C6.30237 197.414 5.36764 194.225 4.42399 191.033C3.81956 188.984 3.30882 186.925 2.87734 184.837C2.18799 181.5 1.5733 178.15 1.03325 174.786C0.52955 171.618 0.715869 168.404 0.0432207 165.273C0.483912 163.349 -0.326301 161.398 0.176778 159.477C-0.196414 158.528 0.131741 157.544 0.166816 156.609C0.202792 155.644 -0.013724 154.633 0.371727 153.655C0.548302 153.21 0.140135 152.676 0.361289 152.134C0.604068 151.682 0.632087 151.146 0.43769 150.671C1.09304 150.37 0.311888 149.906 0.58404 149.477C0.877464 149.012 1.00708 148.461 0.952427 147.914C0.761585 146.688 1.46748 145.557 1.34355 144.45C1.21434 143.318 1.77348 142.358 1.77172 141.343L1.76451 141.152C1.66801 139.82 2.62029 138.817 2.65206 137.557C2.65506 137.446 2.9157 137.345 3.05861 137.235C3.01277 136.952 2.69927 137.016 2.47689 136.795C2.8319 136.487 3.14252 136.132 3.39994 135.738C3.59478 135.199 3.73316 134.642 3.81285 134.074L2.91013 132.91C3.24325 132.244 3.12711 131.638 3.57186 131.115C3.76544 130.887 3.6575 130.189 3.6814 129.708C3.7129 129.075 4.52583 128.698 4.32973 128.199C4.17846 127.624 4.22746 127.015 4.46869 126.472C5.63173 121.345 6.81638 116.222 8.02267 111.105C8.14954 110.557 8.03916 109.867 8.71418 109.545C7.97657 108.784 9.13492 108.518 9.15289 107.914C9.24692 107.35 9.46436 106.813 9.78975 106.343C10.2505 105.462 10.2928 104.368 10.5553 103.375C10.6244 102.674 10.8902 102.006 11.3223 101.448C11.7717 100.982 11.7069 100.172 12.0453 99.5185C12.5232 98.7291 12.8937 97.8796 13.1468 96.9924C13.2231 96.3549 13.4772 95.7516 13.8803 95.2513C14.2382 94.8562 13.9442 94.038 14.6398 93.7399C14.8349 92.5932 15.5196 91.6723 16.0265 90.6676L16.1193 90.4781C17.3644 87.8927 18.7638 85.3842 20.31 82.9662C21.5946 80.9311 22.8446 78.8744 24.1488 76.8521C24.5731 76.1995 25.0242 75.5489 25.4908 74.9292C27.1116 72.6499 28.8574 70.4618 30.7203 68.375C32.424 66.5696 34.048 64.683 35.8368 62.947C36.7878 62.0235 37.566 60.8896 38.4893 59.9085C40.665 57.5931 42.8993 55.3403 45.2492 53.2022C47.2338 51.2416 49.4041 49.4776 51.7296 47.935C52.3618 47.5506 52.8817 46.9869 53.492 46.5613C54.2329 46.1532 54.9439 45.6931 55.6194 45.1844C56.4055 44.4452 57.3698 43.9751 58.1638 43.2903C58.7801 42.759 59.7659 43.0619 60.207 42.1061C60.5284 41.4107 61.7317 41.6655 62.137 40.8529C63.2477 40.816 63.7665 39.7404 64.7753 39.3869L64.9097 39.345C65.9725 39.0551 66.8796 38.1972 67.8547 37.5889C68.7952 36.923 69.7792 36.3206 70.8003 35.7859C72.7174 34.9227 74.372 33.6073 76.2457 32.7157C78.0323 31.8667 79.6401 30.6238 81.5886 30.1506C82.049 30.0391 81.9632 29.6331 82.28 29.4599C82.6097 29.2787 82.9707 29.3987 83.2685 29.1897C84.5007 28.3859 92.733 0 174.515 0Z" fill="#2196F3"/>
<path fill-rule="evenodd" clip-rule="evenodd" d="M82.2639 60.8437C79.5283 62.3871 75.5228 60.4183 75.0736 57.3096C76.8184 57.2165 78.6836 57.0804 80.0629 56.0078C81.4422 54.9352 81.9251 52.5599 80.5424 51.4917C69.2859 50.1093 58.3355 46.2847 48.666 40.3583C55.2686 38.3689 60.9499 34.1723 67.1515 31.1571C73.3531 28.1419 80.854 26.3586 87.0392 29.4075C93.1125 32.4013 100.104 28.5825 106.442 26.1987C117.462 22.0535 130.099 22.401 140.875 27.1456C148.736 30.6072 162.058 24.9885 170.551 23.7C184.424 21.5951 197.967 31.3182 211.897 29.6344C210.403 30.6225 208.908 31.6106 207.414 32.5988C208.886 32.4642 210.365 32.4098 211.843 32.4359C200.282 37.968 188.722 43.5002 177.161 49.0323C180.09 50.2169 183.018 51.4015 185.947 52.5862C185.259 54.7933 182.791 56.284 180.517 55.8661C182.346 57.3223 184.176 58.7784 186.006 60.2346C184.053 61.6218 181.581 62.2591 179.2 61.9891C181.735 63.6259 183.828 65.9415 185.2 68.6291C191.239 66.6173 197.854 66.3695 204.027 67.9241C198.45 68.6553 192.873 69.3864 187.296 70.1176C188.138 72.4106 188.98 74.7036 189.822 76.9967C197.108 75.3292 204.851 75.7083 211.939 78.0794C204.91 78.2583 197.882 78.4371 190.853 78.616C190.689 87.9408 186.047 97.4502 177.896 101.982C169.744 106.513 153.456 110.542 148.061 97.3483C143.93 100.059 144.222 106.575 147.167 110.542C150.112 114.509 154.791 116.705 159.023 119.255C173.078 127.726 183.68 141.754 187.992 157.589C192.304 173.423 190.28 190.89 182.46 205.318C193.003 206.957 202.799 212.957 209.05 221.603C222.512 215.339 229.968 201.047 240.279 190.365C252.009 178.213 268.201 170.467 285.023 168.96C294.976 168.069 306.327 169.988 312.132 178.122C319.678 188.693 312.721 205.13 300.676 209.99C291.127 213.843 280.358 211.905 270.087 212.633C249.435 214.096 231.303 226.275 214.274 238.05C213.579 241.863 214.973 245.99 217.837 248.601C223.929 242.305 231.613 237.561 239.971 234.937C243.061 233.967 247.692 234.22 248.035 237.44C248.165 238.659 247.524 239.815 246.875 240.855C241.303 249.788 233.445 257.284 224.258 262.429C219.409 265.144 213.99 267.249 208.441 266.938C202.892 266.627 197.241 263.424 195.356 258.196C194.483 255.773 194.388 252.969 192.734 250.994C189.936 247.655 184.56 248.655 180.638 250.552C176.715 252.449 172.534 255.028 168.325 253.903C157.802 251.088 146.851 249.882 135.968 250.337C122.109 250.917 107.988 254.144 94.56 250.663C90.0743 249.5 85.0545 247.667 81.0808 250.05C73.2496 254.748 78.5317 269.787 70.4976 274.129C67.6518 275.667 64.1641 275.099 61.0246 274.32C47.1506 270.877 34.1371 264.019 23.4527 254.523C22.423 253.607 21.3621 252.579 21.0735 251.232C20.2076 247.192 26.172 245.511 30.236 246.259C37.1396 247.529 43.7422 250.407 49.3725 254.599C51.3462 256.069 54.3492 254.354 55.1854 252.04C56.0215 249.726 55.4462 247.177 55.1198 244.738C53.0586 229.333 62.7231 213.137 77.2591 207.636C68.4584 194.793 65.1118 178.338 68.1972 163.077C71.2826 147.817 80.7591 133.954 93.8579 125.539C99.0907 122.177 105.103 119.428 108.438 114.178C111.773 108.928 110.309 100.12 104.208 98.91C98.4601 105.135 89.1105 107.768 80.9584 105.458C72.8062 103.147 66.2289 95.9997 64.6023 87.684C59.1914 89.5113 53.7806 91.3387 48.3698 93.166C53.1723 89.4648 58.8598 86.92 64.8198 85.8056C65.3918 83.3271 65.9638 80.8487 66.5358 78.3702C56.2114 77.7042 45.7414 79.4033 36.1574 83.3003C42.055 78.861 49.5587 76.6052 56.9265 77.0565C64.4205 77.5156 72.0383 73.8489 76.3543 67.7054C73.6539 66.756 71.2271 65.0422 69.4292 62.8149C72.1831 61.3201 75.5186 60.9327 78.5418 61.7566M135.229 223.394C134.737 223.872 134.209 224.44 134.243 225.125C134.278 225.81 135.306 226.321 135.66 225.734C137.595 222.529 140.96 220.225 144.647 219.579C148.335 218.934 152.283 219.958 155.191 222.315C156.206 223.138 157.112 224.121 158.271 224.722C158.689 224.939 159.403 224.945 159.42 224.475C159.426 224.32 159.338 224.18 159.251 224.052C157.162 220.974 154.039 218.611 150.509 217.438C147.415 216.41 143.829 216.345 141.061 218.069C140.056 218.695 139.199 219.528 138.351 220.354C137.31 221.367 136.269 222.38 135.229 223.394ZM120.222 217.792C116.216 217.263 111.902 218.607 109.234 221.642C108.764 222.178 108.337 222.779 108.175 223.473C108.013 224.167 108.165 224.97 108.702 225.437C110.766 222.231 114.434 220.117 118.242 219.937C122.051 219.757 125.901 221.517 128.258 224.515C128.626 224.983 128.978 225.496 129.501 225.782C130.024 226.069 130.785 226.032 131.103 225.528C131.484 224.926 131.024 224.155 130.555 223.62C127.893 220.579 124.228 218.322 120.222 217.792ZM148.482 213.691C148.42 214.368 149.315 214.789 149.958 214.568C150.601 214.346 151.027 213.754 151.458 213.227C155.04 208.847 161.859 207.527 166.817 210.255C167.467 209.706 167.504 208.653 167.069 207.921C166.634 207.19 165.839 206.741 165.029 206.482C163.273 205.921 161.366 206.112 159.559 206.477C155.283 207.343 150.963 209.37 148.715 213.109C148.607 213.29 148.501 213.481 148.482 213.691ZM131.67 227.902C129.912 228.024 128.192 228.49 126.547 229.119C124.273 229.99 122.034 231.257 120.703 233.296C122.655 233.849 124.526 232.393 126.309 231.426C130.31 229.255 135.498 229.479 139.296 231.987C140.487 232.774 142.018 233.79 143.18 232.96C140.462 229.553 136.018 227.6 131.67 227.902ZM138.891 226.803C140.224 226.109 141.29 224.981 142.612 224.265C144.433 223.28 146.701 223.167 148.612 223.965C149.649 224.398 150.568 225.076 151.59 225.544C152.612 226.012 153.83 226.255 154.848 225.778C154.961 225.726 155.078 225.656 155.126 225.541C155.203 225.353 155.065 225.151 154.932 224.999C152.653 222.398 149.082 220.988 145.641 221.332C142.2 221.675 138.979 223.763 137.259 226.763C137.618 227.236 138.365 227.078 138.891 226.803ZM112.194 226.928C112.908 226.521 113.467 225.894 114.12 225.395C115.426 224.398 117.127 223.939 118.759 224.128C120.578 224.339 122.218 225.302 123.722 226.346C124.162 226.652 124.611 226.973 125.132 227.094C125.654 227.215 126.275 227.084 126.57 226.637C126.862 226.195 126.745 225.578 126.433 225.15C126.12 224.723 125.651 224.441 125.194 224.173C123.335 223.083 121.37 221.993 119.218 221.882C116.527 221.743 114.027 223.145 111.7 224.503C110.756 225.054 109.672 225.888 109.872 226.962C110.518 227.47 111.48 227.334 112.194 226.928ZM124.311 216.498C124.797 217.126 125.748 216.453 126.284 215.867C127.936 214.062 130.317 212.945 132.76 212.827C135.204 212.71 137.681 213.594 139.498 215.232C139.957 215.646 140.44 216.134 141.057 216.151C141.674 216.167 142.23 215.306 141.74 214.93C139.121 212.918 136.073 211.273 132.776 211.056C129.48 210.838 125.928 212.317 124.401 215.247C124.197 215.64 124.04 216.148 124.311 216.498ZM153.455 215.947C153.89 215.763 154.209 215.389 154.542 215.054C157.078 212.502 161.375 211.932 164.489 213.733C165.268 214.184 166.439 214.681 166.892 213.903C167.269 213.255 166.596 212.5 165.955 212.111C161.766 209.571 155.796 210.539 152.623 214.271C152.3 214.651 151.99 215.173 152.212 215.62C152.422 216.043 153.02 216.131 153.455 215.947ZM155.771 216.187C155.591 216.337 155.411 216.506 155.336 216.728C155.124 217.348 155.878 217.928 156.531 217.876C157.184 217.824 157.739 217.405 158.332 217.125C159.777 216.444 161.513 216.606 162.98 217.239C163.56 217.49 164.123 217.814 164.748 217.908C165.373 218.002 166.102 217.795 166.386 217.23C163.901 214.149 158.809 213.649 155.771 216.187ZM116.472 215.005C116.843 215.179 117.349 215.145 117.587 214.812C117.912 214.359 117.564 213.742 117.22 213.304C116.053 211.821 114.798 210.361 113.195 209.366C111.591 208.371 109.572 207.892 107.786 208.502C107.604 209.162 108.425 209.61 109.071 209.835C111.559 210.702 113.816 212.22 115.559 214.196C115.83 214.503 116.101 214.831 116.472 215.005ZM138.453 216.66C135.517 214.788 131.51 214.755 128.544 216.578C128.029 216.895 127.499 217.341 127.459 217.945C127.419 218.548 128.239 219.109 128.646 218.661C130.284 216.854 133.278 216.48 135.311 217.826C136.309 218.487 137.743 218.397 138.65 217.616C139.079 217.572 138.816 216.891 138.453 216.66ZM159.806 226.789C155.635 226.508 151.754 228.962 148.726 231.845C148.947 232.354 149.699 232.219 150.208 231.999C153.656 230.507 157.104 229.014 160.551 227.522C160.811 227.179 160.235 226.818 159.806 226.789ZM120.11 228.647C120.623 228.938 121.125 229.333 121.715 229.334C122.305 229.334 122.889 228.624 122.515 228.168C121.337 226.732 119.486 225.874 117.629 225.902C115.772 225.931 113.948 226.845 112.815 228.317C112.955 228.852 113.609 229.098 114.156 229.018C114.703 228.938 115.185 228.63 115.692 228.41C117.094 227.803 118.78 227.893 120.11 228.647ZM140.793 228.255C140.746 228.666 141.212 228.98 141.625 228.957C142.037 228.935 142.4 228.693 142.762 228.494C144.281 227.657 146.152 227.486 147.798 228.032C148.853 228.382 150.17 228.955 150.931 228.145C150.998 227.683 150.534 227.333 150.121 227.114C148.642 226.327 147.014 225.734 145.339 225.749C143.665 225.765 141.936 226.467 140.98 227.842C140.893 227.968 140.811 228.103 140.793 228.255ZM137.68 210.233C139.404 210.851 141.01 211.797 142.386 213.005C142.953 213.504 143.496 214.056 144.184 214.367C144.872 214.677 145.765 214.685 146.303 214.156C145.112 213.243 144.133 212.053 143.466 210.708C143.106 209.983 142.147 209.851 141.339 209.811C140.159 209.753 138.978 209.696 137.797 209.638C137.672 209.806 137.628 210.031 137.68 210.233ZM122.279 214.379C122.889 213.81 123.339 213.092 123.902 212.477C124.775 211.523 125.926 210.825 127.176 210.492C127.715 210.348 128.424 210.072 128.343 209.52C126.815 209.254 125.072 209.04 123.867 210.016C122.179 211.383 120.842 213.178 120.014 215.186C120.829 215.366 121.669 214.949 122.279 214.379ZM108.699 213.688C109.793 214.401 110.888 215.115 111.983 215.828C112.447 216.13 113.038 216.439 113.519 216.165C113.965 215.912 114.034 215.258 113.801 214.8C113.568 214.342 113.125 214.036 112.699 213.749C111.808 213.149 110.916 212.549 110.025 211.949C109.278 211.446 108.063 211.045 107.656 211.848C107.306 212.541 108.049 213.264 108.699 213.688ZM131.75 222.263C132.169 222.679 132.756 223.128 133.288 222.873C133.531 222.757 133.687 222.518 133.831 222.291C134.306 221.541 134.78 220.791 135.255 220.041C134.012 218.659 131.573 218.622 130.289 219.965C130.19 220.069 130.094 220.187 130.076 220.329C130.049 220.553 130.222 220.747 130.383 220.906C130.838 221.359 131.294 221.811 131.75 222.263ZM112.592 232.99C113.482 233.302 114.533 233.395 115.319 232.872C114.136 231.512 112.751 230.33 111.222 229.376C110.789 229.105 110.3 228.844 109.794 228.916C109.288 228.988 108.84 229.563 109.085 230.012C109.837 231.388 111.112 232.471 112.592 232.99ZM161.441 222.062C161.861 221.553 162.282 221.045 162.703 220.536C162.848 220.361 163.001 220.164 162.992 219.936C162.981 219.648 162.716 219.441 162.465 219.299C161.591 218.808 160.558 218.602 159.562 218.722C159.181 218.768 158.784 218.872 158.517 219.146C158.249 219.421 158.172 219.909 158.441 220.182C159.052 220.801 159.663 221.42 160.274 222.038C160.473 222.241 160.726 222.46 161.004 222.4C161.187 222.36 161.321 222.206 161.441 222.062ZM117.535 211.078C117.912 211.484 118.386 211.9 118.939 211.854C120.124 211.756 120.506 209.711 121.69 209.823C122.008 209.299 121.14 208.88 120.527 208.87C118.942 208.845 117.356 208.82 115.77 208.795C116.288 209.607 116.879 210.372 117.535 211.078ZM127.328 233.365C130.627 233.351 133.925 233.337 137.224 233.322C136.935 232.67 136.161 232.405 135.462 232.261C133.173 231.786 130.773 231.859 128.517 232.47C128.012 232.607 127.435 232.853 127.328 233.365ZM147.695 229.894C146.604 229.944 145.512 229.993 144.421 230.042C144.069 230.058 143.616 230.16 143.573 230.51C143.554 230.667 143.632 230.817 143.708 230.955C143.997 231.479 144.304 232.024 144.803 232.354C145.302 232.684 146.053 232.717 146.441 232.261C146.738 231.913 146.762 231.368 147.117 231.078C147.345 230.89 147.662 230.853 147.915 230.7C148.168 230.547 148.329 230.15 148.095 229.97C147.985 229.886 147.833 229.888 147.695 229.894ZM119.436 231.72C119.727 231.265 119.451 230.621 118.997 230.328C118.543 230.036 117.975 230 117.435 229.974C116.839 229.944 116.054 230.054 115.947 230.641C115.896 230.921 116.039 231.196 116.176 231.444C116.581 232.175 117.176 233.012 118.007 232.929C118.651 232.866 119.086 232.265 119.436 231.72ZM162.549 225.175C163.039 225.215 163.478 224.883 163.822 224.532C164.87 223.461 165.536 222.023 165.677 220.531C165.33 220.309 164.906 220.653 164.64 220.967C163.748 222.022 162.855 223.078 161.963 224.133C161.646 224.508 162.059 225.135 162.549 225.175ZM107.954 217.699C108.451 218.322 109.411 218.517 110.113 218.138C110.472 217.944 110.775 217.558 110.704 217.157C110.64 216.799 110.314 216.556 110.014 216.351C109.58 216.055 109.146 215.76 108.712 215.464C108.579 215.373 108.427 215.279 108.27 215.311C108.162 215.333 108.075 215.413 108.002 215.496C107.477 216.097 107.456 217.076 107.954 217.699ZM146.498 211.125C147.02 211.562 147.792 211.111 148.309 210.669C148.87 210.189 149.432 209.709 149.993 209.23C149.675 208.927 149.168 208.995 148.738 209.084C147.488 209.342 146.238 209.6 144.989 209.859C145.492 210.281 145.995 210.703 146.498 211.125ZM166.12 204.996C166.435 205.387 167.097 205.303 167.458 204.953C167.818 204.603 167.951 204.086 168.055 203.595C168.08 203.476 168.103 203.349 168.053 203.238C167.927 202.958 167.512 203.043 167.233 203.172C166.484 203.522 165.603 204.351 166.12 204.996Z" fill="white"/>
<path fill-rule="evenodd" clip-rule="evenodd" d="M68.1972 163.078C71.2826 147.817 81.832 135.043 94.9309 126.627C88.3081 135.706 67.9842 150.594 74.5166 167.181C84.9586 193.695 125.58 197.865 124.167 198.153C100.141 203.052 65.9 174.44 68.1972 163.078Z" fill="#E7EAEE"/>
<path d="M106.442 26.1991C117.462 22.054 130.099 22.401 140.874 27.1454C146.17 29.4771 151.827 27.6894 157.551 25.8798C160.325 25.0029 163.115 24.1207 165.887 23.7001C172.943 22.6295 179.914 24.6193 186.894 26.6112C193.637 28.5355 200.388 30.4619 207.233 29.6347L202.75 32.5985C204.222 32.4641 205.701 32.4104 207.179 32.4364L172.496 49.0321L181.282 52.5868C180.594 54.7935 178.126 56.2837 175.853 55.8661L181.342 60.2353C179.389 61.6224 176.917 62.2591 174.536 61.9892C177.071 63.6258 179.163 65.9415 180.535 68.6288C186.574 66.6169 193.19 66.3701 199.363 67.9247L182.632 70.1181L185.158 76.997C192.444 75.3296 200.187 75.7089 207.275 78.08L186.189 78.6161C186.024 87.9407 181.383 97.4498 173.232 101.981C165.08 106.513 153.554 104.885 148.061 97.3485C143.93 100.059 144.222 106.576 147.167 110.543C149.579 113.792 153.154 115.852 156.694 117.892C157.476 118.343 158.257 118.793 159.023 119.255C173.078 127.726 183.68 141.754 187.992 157.589C192.305 173.423 190.28 190.89 182.46 205.318C193.003 206.957 202.799 212.957 209.05 221.603C218.257 217.32 224.654 209.279 231.077 201.208C234.046 197.478 237.02 193.741 240.279 190.365C252.008 178.213 268.2 170.467 285.023 168.961C294.976 168.07 306.327 169.989 312.132 178.122C319.678 188.694 312.721 205.13 300.676 209.99C294.138 212.628 287.027 212.551 279.897 212.475C276.613 212.439 273.325 212.403 270.087 212.633C249.435 214.096 231.303 226.275 214.274 238.05C213.579 241.862 214.973 245.99 217.837 248.601C223.929 242.305 231.612 237.562 239.971 234.937C243.061 233.967 247.692 234.22 248.035 237.44C248.165 238.659 247.524 239.815 246.875 240.854C241.302 249.788 233.445 257.284 224.258 262.429C219.409 265.144 213.99 267.249 208.441 266.938C202.892 266.628 197.24 263.425 195.356 258.196C195.067 257.394 194.863 256.55 194.659 255.709C194.249 254.008 193.84 252.316 192.734 250.995C189.935 247.655 184.56 248.655 180.638 250.552C180.131 250.797 179.618 251.054 179.103 251.312C175.633 253.054 171.989 254.883 168.324 253.903C157.802 251.089 146.851 249.881 135.968 250.337C132.053 250.5 128.117 250.876 124.182 251.252H124.178V251.253H124.163V251.254H124.159C114.171 252.207 104.187 253.158 94.5598 250.663C94.0318 250.526 93.4964 250.38 92.9563 250.232H92.9543C88.9056 249.127 84.5857 247.948 81.0803 250.051C77.1986 252.38 76.5388 257.249 75.882 262.098C75.2139 267.03 74.5488 271.939 70.4973 274.129C67.6515 275.667 64.1641 275.099 61.0246 274.32C47.1506 270.877 34.1367 264.019 23.4524 254.522C22.4228 253.607 21.3621 252.579 21.0735 251.232C20.2077 247.192 26.1715 245.511 30.2356 246.259C37.1391 247.529 43.742 250.407 49.3723 254.6C51.346 256.069 54.3486 254.354 55.1848 252.04C55.9 250.06 55.5827 247.91 55.2717 245.803C55.2191 245.446 55.1665 245.091 55.1194 244.738C53.0584 229.333 62.7231 213.138 77.259 207.637C68.4583 194.794 65.1122 178.338 68.1975 163.078C71.2829 147.818 80.7588 133.954 93.8576 125.539C94.947 124.839 96.0708 124.166 97.1965 123.491C101.478 120.924 105.797 118.334 108.438 114.178C111.772 108.928 110.309 100.12 104.208 98.9101C98.46 105.135 89.1104 107.769 80.9582 105.458C72.8062 103.147 66.2285 96 64.6018 87.6845L48.3694 93.1659C53.1719 89.4647 58.8596 86.92 64.8195 85.8056L66.5354 78.37C56.211 77.7041 45.7413 79.4038 36.1574 83.3007C42.0549 78.8615 49.5583 76.6053 56.926 77.0565C64.4198 77.5156 72.0377 73.8492 76.3537 67.706C73.6535 66.7566 71.2267 65.0425 69.4289 62.8153C72.1827 61.3206 75.5181 60.933 78.5412 61.7567L73.3108 64.8564C85.2989 67.1315 99.0293 70.7097 104.093 81.8114C99.2369 77.4184 94.1611 72.8983 87.8938 71.0009C81.6264 69.1036 73.8055 70.6402 70.4358 76.2548C71.8328 76.4904 73.1417 77.2179 74.0803 78.2792L69.4113 78.7782C68.1004 80.6642 67.6677 83.1352 68.26 85.3544C70.4385 84.5136 72.9189 84.4798 75.1194 85.2616C72.8776 86.5427 70.3564 87.3328 67.7844 87.5595C68.0485 95.794 75.7985 102.499 83.9875 103.403C92.1767 104.307 100.307 100.432 106.405 94.8915C114.642 100.197 114.929 114.174 106.917 119.814C92.025 130.297 76.3548 142.278 71.2629 159.764C70.2662 163.186 69.7259 166.909 70.885 170.28C71.8244 173.012 73.7903 175.259 75.8235 177.311C86.2658 187.855 99.8009 195.298 114.297 198.471C117.111 199.086 120.378 199.441 122.576 197.58C124.775 195.718 123.861 191.006 120.992 191.27C110.92 192.199 104.072 181.479 100.299 172.094C96.5263 162.708 91.5698 151.591 81.5647 150.103C87.7772 149.482 93.7626 153.304 97.4494 158.343C101.136 163.382 102.959 169.507 104.717 175.498C114.841 173.567 125.287 173.33 135.488 174.802C134.935 166.945 134.425 158.778 137.317 151.452C141.376 141.171 152.438 134.106 163.473 134.748C162.496 137.755 158.987 138.356 155.66 138.926C154.864 139.062 154.078 139.197 153.339 139.362C146.532 140.888 141.591 147.15 139.613 153.84C137.634 160.529 138.081 167.663 138.545 174.624L153.319 174.499L172.57 149.648C169.569 158.998 163.78 167.434 156.135 173.596C162.782 170.098 171.227 176.1 173.111 183.371C174.993 190.642 172.405 198.242 169.849 205.305L180.622 205.392C183.926 195.714 186.244 185.699 187.529 175.553C183.943 177.736 179.635 178.712 175.458 178.287C178.421 174.379 182.632 171.432 187.319 169.989L186.407 161.172C182.139 165.091 176.469 167.453 170.68 167.723C174.593 162.62 179.346 158.163 184.689 154.586C181.629 143.166 174.295 132.946 164.455 126.392C162.603 125.159 160.653 124.039 158.704 122.92C154.199 120.333 149.702 117.749 146.436 113.773C141.758 108.077 141.298 97.9176 147.863 94.5653C153.151 101.131 162.916 103.64 170.714 100.436C178.513 97.2326 183.694 88.5836 182.839 80.1962L177.906 79.8524C181.635 79.4174 182.586 73.1362 179.154 71.6171C177.581 72.5802 175.551 72.7545 173.838 72.0731L178.299 68.7694C171.724 64.7719 163.149 64.2772 156.157 67.4931C149.166 70.7092 143.961 77.5422 142.718 85.1366C141.656 78.1516 145.615 70.991 151.509 67.0956C157.403 63.2002 164.882 62.247 171.88 63.2177L170.818 59.3583C172.402 58.8269 174.162 58.8324 175.743 59.3739C173.88 58.1237 172.451 56.2385 171.751 54.1064L176.497 53.0653C174.046 52.5319 171.831 50.9846 170.487 48.8661C166.702 50.4392 162.517 51.0366 158.444 50.5849L173.884 45.6591C181.006 43.387 186.25 36.1971 186.238 28.7216C171.414 24.6919 155.072 26.5614 141.542 33.8358C141.903 32.1916 143.376 30.8532 145.047 30.6503C140.967 28.3651 136.485 26.8024 131.868 26.0565C130.444 30.231 127.539 33.8839 123.793 36.2128C123.468 32.2859 125.145 28.2451 128.155 25.7021L123.238 25.0116C121.362 29.5338 118.096 33.4689 113.997 36.1474C114.102 32.4274 115.117 28.7363 116.93 25.4862L105.878 35.6503C105.027 32.6295 106.155 29.1485 108.616 27.2011C104.473 27.7358 100.521 29.6589 97.5442 32.5897C100.122 33.3785 102.271 35.457 103.145 38.0077C91.8253 29.547 75.4097 28.5872 63.1819 35.6718C62.9245 41.4393 67.8305 46.4139 73.3215 48.1972C78.8124 49.9804 84.7596 49.3089 90.4914 48.619C89.6816 50.948 86.8012 52.3117 84.4865 51.4618L81.5061 58.123C81.0286 59.1904 81.1143 61.0573 82.2639 60.8437C79.5282 62.387 75.5226 60.4182 75.0735 57.3095C76.8182 57.2163 78.6834 57.0803 80.0627 56.0077C81.4419 54.9351 81.9248 52.5603 80.5422 51.4921C69.2857 50.1097 58.3357 46.2846 48.6662 40.3583C52.9508 39.0672 56.8475 36.8469 60.7502 34.623C62.8613 33.4199 64.9746 32.2156 67.1516 31.1571C73.3532 28.142 80.8542 26.3592 87.0393 29.4081C92.1786 31.9413 97.976 29.5957 103.478 27.37C104.477 26.9657 105.467 26.5656 106.442 26.1991ZM78.05 183.715C75.7849 182.553 72.9814 182.079 70.7111 183.231C70.2048 184.438 71.1204 185.84 72.2922 186.423C73.1795 186.864 74.1735 186.984 75.1652 187.103H75.1701C75.4863 187.141 75.8023 187.18 76.1145 187.228C77.6064 187.46 79.0588 187.946 80.3899 188.659C81.7881 189.408 83.1125 191.385 81.8664 192.366C81.3554 192.769 80.6391 192.74 79.9904 192.692L72.6731 192.155C74.457 197.009 76.7315 201.682 79.4504 206.08C79.6945 206.475 80.0204 206.914 80.4846 206.918C87.6539 206.983 95.6601 207.987 100.203 213.533C101.064 214.584 101.77 216.103 101.032 217.244C96.8678 212.215 90.3528 209.22 83.8244 209.333C77.2961 209.446 70.8891 212.664 66.9006 217.834C70.4209 220.19 73.2199 223.609 74.8332 227.526C75.3205 228.709 75.2304 230.644 73.9514 230.617L66.2697 221.212C65.9265 220.792 65.5133 220.336 64.9709 220.319C64.5361 220.306 64.1528 220.583 63.8078 220.849C63.0607 221.423 62.2848 222.032 61.8947 222.89C61.5047 223.747 61.6506 224.928 62.4631 225.405C65.9259 227.439 68.7049 230.616 70.261 234.318C70.6478 235.239 70.8919 236.467 70.1194 237.1C69.1243 237.914 67.7123 236.864 66.8762 235.887L59.7492 227.558C58.043 231.994 57.2611 236.783 57.466 241.53C57.5072 242.483 57.5844 243.449 57.6623 244.419V244.421C57.9602 248.129 58.2617 251.887 56.5442 255.102C55.7908 256.513 54.5091 257.808 52.9133 257.911C52.0088 257.97 51.128 257.639 50.2932 257.286C48.0051 256.318 45.7502 255.129 43.4963 253.94C37.6946 250.88 31.8972 247.822 25.5442 248.552C24.6766 248.651 23.5963 249.08 23.6301 249.952C23.6453 250.343 23.8998 250.679 24.1477 250.981C33.3073 262.168 47.6315 267.593 61.4973 271.688C63.7649 272.358 66.155 273.01 68.4641 272.502C70.7732 271.993 72.9175 269.911 72.6389 267.563C71.9011 261.351 73.8472 254.865 77.884 250.086C79.4956 248.178 81.5334 246.48 83.9787 245.972C86.9823 245.348 89.9179 246.585 92.8088 247.804C93.5515 248.117 94.2913 248.429 95.0285 248.708C100.68 250.845 107.033 251.077 112.825 249.36C110.561 249.331 109.473 246.616 109.003 244.4C105.962 230.045 104.346 215.388 104.185 200.716C104.167 199.12 103.048 197.71 101.698 196.859C100.556 196.139 99.2528 195.739 97.9572 195.341C97.7224 195.269 97.4875 195.196 97.2541 195.122C92.5362 193.627 88.0901 191.278 84.1975 188.222C83.7071 187.837 83.2236 187.44 82.7404 187.043C81.2507 185.818 79.7602 184.592 78.05 183.715ZM197.178 213.695C190.051 208.444 180.63 207.601 171.781 207.868C171.45 207.878 171.083 207.904 170.85 208.14C170.673 208.318 170.614 208.579 170.562 208.825L165.707 231.86C164.383 238.146 162.773 244.922 157.84 249.037C163.893 251.995 171.216 252.227 177.444 249.658C178.381 249.271 179.31 248.821 180.239 248.371C182.886 247.089 185.538 245.805 188.422 245.965C191.451 246.133 194.318 248.063 195.612 250.807C196.113 251.871 196.385 253.02 196.656 254.169L196.835 254.914C197.018 255.657 197.223 256.393 197.511 257.1C199.396 261.719 204.679 264.27 209.668 264.231C214.657 264.193 219.383 262.034 223.693 259.521C232.111 254.614 239.73 248.057 244.811 239.742C245.138 239.207 245.466 238.592 245.32 237.982C245.067 236.932 243.685 236.694 242.608 236.779C235.773 237.32 230.222 241.836 224.795 246.253V246.254L224.793 246.256H224.792L224.791 246.257L224.786 246.261L223.062 247.658C222.488 248.119 221.913 248.574 221.338 249.018C220.258 249.852 219.051 250.691 217.687 250.69C215.218 250.688 213.66 248.067 212.853 245.734C211.845 242.823 211.183 239.777 210.522 236.738C209.393 231.549 208.269 226.381 205.441 221.943C205.329 221.768 205.201 221.585 205.006 221.514C204.645 221.382 204.287 221.695 204.029 221.979L198.693 227.87C198.151 228.468 197.048 228.024 196.768 227.267C196.488 226.511 196.773 225.668 197.119 224.938C198.448 222.138 200.725 219.798 203.487 218.392C202.632 216.918 200.48 216.719 198.932 217.428C197.717 217.984 196.755 218.936 195.798 219.883H195.797C195.534 220.143 195.272 220.403 195.004 220.654C193.763 221.82 192.211 222.882 190.512 222.761C190.171 222.736 189.817 222.656 189.563 222.428C188.885 221.819 189.325 220.701 189.852 219.958C191.728 217.31 194.27 215.137 197.178 213.695ZM163.884 227.597C160.097 231.31 155.047 233.537 149.866 234.677C144.686 235.816 139.34 235.935 134.036 235.915C126.347 235.886 118.659 235.572 110.993 234.975C110.519 234.939 110.388 235.614 110.441 236.087C110.738 238.758 111.159 241.416 111.703 244.049C111.881 244.907 112.11 245.83 112.787 246.388C113.343 246.845 114.096 246.965 114.809 247.063C126.789 248.717 138.959 248.987 151 247.866C152.299 247.745 153.614 247.604 154.829 247.13C158.302 245.774 160.217 242.024 161.127 238.408C161.426 237.221 161.653 236.01 161.88 234.801C162.344 232.327 162.807 229.857 163.884 227.597ZM295.497 170.666C288.135 169.532 280.635 171.152 273.478 173.216C263.806 176.005 254.167 179.745 246.51 186.279C241.715 190.371 237.886 195.392 234.051 200.421C231.343 203.972 228.63 207.528 225.573 210.764C220.985 215.619 215.62 219.738 209.743 222.916C209.185 223.218 209.312 224.044 209.518 224.645L213.361 235.846C216.632 234.683 219.526 232.693 222.392 230.723C222.604 230.577 222.816 230.43 223.028 230.285C238.128 219.931 255.144 211.017 273.446 210.497C275.905 210.427 278.379 210.509 280.851 210.591C286.022 210.762 291.185 210.932 296.184 209.714C301.932 208.313 307.296 204.972 310.6 200.064C313.904 195.156 314.953 188.651 312.809 183.137C310.109 176.194 302.86 171.8 295.497 170.666ZM143.18 232.96C140.462 229.553 136.018 227.6 131.67 227.902C129.913 228.024 128.192 228.489 126.547 229.119C124.273 229.989 122.034 231.257 120.703 233.296C122.314 233.752 123.869 232.841 125.365 231.965C125.683 231.779 125.998 231.595 126.31 231.426C130.31 229.255 135.498 229.479 139.296 231.987L139.308 231.995C140.498 232.781 142.022 233.787 143.18 232.96ZM135.462 232.261C133.173 231.786 130.773 231.859 128.517 232.471C128.012 232.608 127.436 232.853 127.328 233.365L137.224 233.322C136.935 232.67 136.16 232.405 135.462 232.261ZM109.794 228.916C109.288 228.988 108.84 229.563 109.085 230.012C109.837 231.388 111.112 232.471 112.592 232.99C113.482 233.302 114.533 233.395 115.319 232.872C114.137 231.512 112.751 230.33 111.223 229.376C110.789 229.105 110.3 228.844 109.794 228.916ZM117.435 229.974C116.839 229.944 116.054 230.054 115.947 230.642C115.897 230.921 116.038 231.196 116.176 231.444C116.581 232.175 117.176 233.012 118.007 232.93C118.651 232.866 119.087 232.264 119.436 231.72C119.727 231.265 119.452 230.621 118.997 230.328C118.543 230.035 117.975 230 117.435 229.974ZM147.695 229.894L144.42 230.042C144.068 230.058 143.616 230.161 143.572 230.511C143.553 230.667 143.632 230.817 143.708 230.955C143.997 231.479 144.303 232.024 144.802 232.354C145.301 232.684 146.052 232.717 146.441 232.262C146.574 232.105 146.653 231.909 146.731 231.714C146.826 231.475 146.921 231.237 147.116 231.077C147.246 230.971 147.404 230.913 147.563 230.855C147.684 230.811 147.806 230.766 147.915 230.7C148.168 230.547 148.329 230.15 148.095 229.97C147.985 229.885 147.833 229.888 147.695 229.894ZM159.807 226.789C155.636 226.507 151.754 228.962 148.727 231.845C148.947 232.354 149.699 232.219 150.208 231.999L160.552 227.522C160.811 227.18 160.236 226.818 159.807 226.789ZM117.629 225.902C115.772 225.931 113.949 226.845 112.816 228.316C112.955 228.851 113.61 229.097 114.156 229.017C114.55 228.96 114.911 228.784 115.271 228.608C115.41 228.54 115.55 228.471 115.692 228.41C117.094 227.802 118.781 227.893 120.111 228.647L120.151 228.67L120.18 228.687C120.208 228.704 120.235 228.72 120.263 228.736C120.314 228.767 120.365 228.797 120.415 228.828C120.826 229.079 121.242 229.333 121.715 229.334C122.305 229.334 122.89 228.624 122.516 228.168C121.338 226.732 119.486 225.874 117.629 225.902ZM145.34 225.749C143.665 225.764 141.937 226.467 140.981 227.843C140.894 227.968 140.811 228.103 140.793 228.255C140.746 228.665 141.212 228.979 141.624 228.957C141.977 228.938 142.294 228.758 142.605 228.582C142.657 228.552 142.71 228.523 142.762 228.494C144.281 227.657 146.152 227.486 147.798 228.032C147.903 228.067 148.012 228.105 148.121 228.142C149.11 228.483 150.245 228.874 150.931 228.145C150.998 227.683 150.534 227.333 150.121 227.113C148.643 226.326 147.015 225.734 145.34 225.749ZM119.218 221.882C116.528 221.743 114.026 223.145 111.699 224.503C110.756 225.053 109.673 225.888 109.872 226.962C110.518 227.47 111.479 227.334 112.194 226.928C112.642 226.672 113.03 226.329 113.418 225.986C113.648 225.783 113.878 225.581 114.12 225.395C115.426 224.398 117.127 223.938 118.759 224.128C120.578 224.339 122.218 225.303 123.722 226.347L123.772 226.381C124.196 226.675 124.63 226.977 125.132 227.094C125.654 227.215 126.275 227.084 126.571 226.637C126.862 226.195 126.745 225.578 126.433 225.15C126.12 224.722 125.651 224.441 125.195 224.173C123.336 223.082 121.37 221.993 119.218 221.882ZM154.932 224.999C152.653 222.398 149.082 220.988 145.641 221.332C142.2 221.675 138.979 223.763 137.259 226.763C137.618 227.235 138.365 227.078 138.891 226.804C139.573 226.448 140.184 225.979 140.796 225.511C141.381 225.063 141.966 224.615 142.612 224.266C144.433 223.281 146.701 223.167 148.612 223.965C149.169 224.198 149.692 224.501 150.215 224.805C150.666 225.066 151.117 225.327 151.59 225.544C152.612 226.012 153.83 226.255 154.848 225.778C154.961 225.725 155.077 225.656 155.125 225.541C155.203 225.354 155.065 225.151 154.932 224.999ZM150.509 217.437C147.415 216.409 143.829 216.345 141.062 218.069C140.057 218.695 139.199 219.528 138.351 220.354L135.229 223.393C134.737 223.872 134.209 224.44 134.243 225.125C134.278 225.81 135.306 226.321 135.66 225.734C137.595 222.529 140.96 220.225 144.648 219.579C148.335 218.933 152.283 219.958 155.192 222.315C155.342 222.438 155.491 222.564 155.638 222.691L156.078 223.078C156.768 223.689 157.458 224.3 158.272 224.723C158.689 224.939 159.403 224.944 159.42 224.475C159.426 224.32 159.338 224.18 159.251 224.053C157.163 220.974 154.039 218.61 150.509 217.437ZM120.222 217.792C116.216 217.262 111.902 218.607 109.235 221.642C108.764 222.178 108.337 222.78 108.175 223.474C108.013 224.167 108.165 224.97 108.702 225.437C110.766 222.231 114.434 220.116 118.242 219.936C122.051 219.757 125.902 221.517 128.258 224.515L128.291 224.557L128.338 224.618L128.399 224.695C128.719 225.11 129.045 225.532 129.501 225.782C130.024 226.068 130.785 226.031 131.104 225.527C131.484 224.925 131.024 224.156 130.555 223.62C127.893 220.579 124.228 218.322 120.222 217.792ZM165.677 220.53C165.33 220.309 164.907 220.653 164.641 220.967L161.963 224.133C161.646 224.508 162.059 225.134 162.549 225.175C163.039 225.215 163.478 224.883 163.821 224.532C164.87 223.461 165.536 222.023 165.677 220.53ZM135.255 220.041C134.012 218.659 131.573 218.622 130.289 219.966C130.191 220.069 130.094 220.187 130.076 220.328C130.048 220.553 130.222 220.747 130.383 220.906L131.75 222.264C132.169 222.679 132.756 223.128 133.288 222.873C133.531 222.757 133.687 222.518 133.831 222.291L135.255 220.041ZM162.465 219.3C161.591 218.808 160.559 218.602 159.563 218.722C159.182 218.767 158.785 218.872 158.517 219.146C158.249 219.421 158.172 219.909 158.442 220.182L160.274 222.038C160.473 222.24 160.726 222.46 161.004 222.399C161.187 222.359 161.321 222.206 161.441 222.061L162.703 220.536C162.848 220.361 163.001 220.163 162.992 219.936C162.981 219.648 162.716 219.441 162.465 219.3ZM138.452 216.66C135.517 214.788 131.51 214.754 128.544 216.578C128.029 216.895 127.499 217.341 127.459 217.944C127.419 218.548 128.239 219.108 128.646 218.66C130.284 216.854 133.278 216.48 135.311 217.826C136.309 218.487 137.743 218.397 138.651 217.616C139.078 217.571 138.815 216.892 138.452 216.66ZM108.27 215.311C108.162 215.334 108.075 215.413 108.002 215.496C107.478 216.096 107.456 217.076 107.953 217.699C108.451 218.322 109.411 218.517 110.113 218.138C110.472 217.944 110.775 217.558 110.703 217.156C110.64 216.798 110.314 216.556 110.014 216.351L108.712 215.464C108.58 215.373 108.427 215.279 108.27 215.311ZM166.386 217.23C163.9 214.15 158.809 213.648 155.771 216.186C155.591 216.337 155.412 216.506 155.336 216.727C155.124 217.347 155.877 217.928 156.53 217.876C156.885 217.848 157.211 217.711 157.53 217.548L157.847 217.378C158.007 217.29 158.169 217.202 158.332 217.125C159.777 216.444 161.514 216.606 162.981 217.239C163.12 217.299 163.258 217.363 163.396 217.428C163.834 217.632 164.272 217.837 164.747 217.908C165.372 218.002 166.101 217.794 166.386 217.23ZM132.777 211.056C129.48 210.838 125.928 212.317 124.402 215.247C124.197 215.639 124.04 216.148 124.311 216.498C124.796 217.126 125.747 216.453 126.283 215.867C127.935 214.062 130.316 212.944 132.76 212.827C135.204 212.71 137.681 213.594 139.498 215.232L139.57 215.298L139.61 215.334C140.035 215.722 140.49 216.135 141.057 216.15C141.673 216.167 142.229 215.307 141.74 214.931C139.121 212.918 136.073 211.273 132.777 211.056ZM110.026 211.949C109.279 211.446 108.063 211.045 107.656 211.849C107.307 212.541 108.049 213.264 108.698 213.687L111.984 215.828C112.447 216.13 113.038 216.438 113.519 216.165C113.965 215.911 114.034 215.257 113.801 214.8C113.568 214.342 113.125 214.036 112.699 213.749L110.026 211.949ZM165.956 212.111C161.768 209.571 155.797 210.539 152.625 214.271C152.302 214.652 151.992 215.172 152.214 215.619C152.424 216.042 153.021 216.131 153.456 215.947C153.827 215.79 154.113 215.495 154.396 215.204L154.447 215.151C154.479 215.119 154.511 215.086 154.543 215.054C157.079 212.502 161.376 211.932 164.49 213.733C165.269 214.184 166.44 214.681 166.893 213.903C167.27 213.255 166.598 212.5 165.956 212.111ZM128.343 209.519C126.815 209.254 125.072 209.04 123.867 210.017C122.18 211.384 120.842 213.179 120.014 215.186C120.828 215.366 121.67 214.948 122.28 214.379C122.638 214.044 122.941 213.658 123.244 213.272C123.457 213.002 123.669 212.73 123.902 212.476C124.775 211.522 125.926 210.825 127.176 210.491C127.715 210.347 128.424 210.071 128.343 209.519ZM113.195 209.366C111.591 208.371 109.572 207.892 107.786 208.502C107.605 209.162 108.425 209.61 109.071 209.835C111.559 210.702 113.817 212.219 115.559 214.195L115.616 214.261C115.869 214.548 116.127 214.843 116.472 215.005C116.843 215.179 117.348 215.145 117.587 214.812C117.912 214.36 117.564 213.743 117.22 213.305C116.053 211.821 114.798 210.361 113.195 209.366ZM165.029 206.481C163.273 205.92 161.366 206.112 159.56 206.477C155.284 207.343 150.963 209.37 148.715 213.109C148.607 213.29 148.501 213.481 148.482 213.69C148.42 214.368 149.315 214.789 149.958 214.567C150.537 214.368 150.941 213.868 151.329 213.387L151.395 213.305L151.458 213.226C155.04 208.846 161.86 207.527 166.817 210.255C167.467 209.706 167.504 208.652 167.069 207.921C166.633 207.19 165.839 206.74 165.029 206.481ZM137.797 209.638C137.672 209.805 137.628 210.031 137.68 210.233C139.404 210.851 141.01 211.797 142.386 213.006C142.482 213.09 142.577 213.176 142.672 213.262C143.141 213.684 143.612 214.109 144.184 214.367C144.872 214.678 145.765 214.685 146.304 214.156C145.112 213.242 144.134 212.053 143.466 210.708C143.106 209.983 142.148 209.851 141.34 209.811L137.797 209.638ZM115.771 208.795C116.288 209.607 116.879 210.372 117.534 211.077C117.912 211.483 118.386 211.9 118.939 211.854C119.511 211.807 119.897 211.305 120.276 210.811C120.681 210.284 121.078 209.765 121.69 209.823C122.008 209.299 121.14 208.88 120.528 208.87L115.771 208.795ZM149.992 209.229C149.675 208.926 149.167 208.995 148.738 209.084L144.988 209.858L146.498 211.125C147.019 211.562 147.792 211.111 148.309 210.669L149.992 209.229ZM168.472 177.731C167.737 176.635 166.416 175.833 165.119 176.08C151.835 178.609 138.274 177.828 124.714 177.047H124.713C119.603 176.752 114.493 176.458 109.398 176.341C108.488 176.32 107.531 176.316 106.732 176.751C105.933 177.186 105.383 178.219 105.793 179.031C108.117 183.628 112.917 186.561 117.895 187.885C118.252 187.98 118.618 188.073 118.988 188.167C122.208 188.986 125.755 189.888 126.924 192.886C127.811 195.16 126.767 197.863 124.91 199.447C123.054 201.032 120.555 201.664 118.12 201.843C113.734 202.164 109.259 201.138 105.451 198.936L107.022 204.883C107.089 205.139 107.17 205.415 107.383 205.573C107.568 205.71 107.812 205.727 108.042 205.739L130.615 206.926C133.906 207.099 137.201 207.272 140.495 207.177C149.735 206.91 158.905 204.497 167.08 200.183C167.552 199.935 168.033 199.67 168.372 199.259C168.777 198.769 168.937 198.127 169.072 197.506C170.217 192.254 170.416 186.797 169.655 181.476C169.468 180.169 169.207 178.828 168.472 177.731ZM168.054 203.238C167.928 202.958 167.512 203.043 167.234 203.173C166.485 203.522 165.603 204.352 166.12 204.996C166.435 205.387 167.098 205.303 167.458 204.953C167.819 204.603 167.952 204.086 168.055 203.595C168.08 203.476 168.103 203.348 168.054 203.238ZM70.4221 175.028C70.2763 175.588 70.2089 176.168 70.2219 176.746C70.2334 177.258 70.3316 177.814 70.7141 178.154C71.0304 178.435 71.4567 178.502 71.886 178.568C72.2654 178.627 72.6476 178.686 72.9582 178.894C73.177 178.788 73.0556 178.457 72.9074 178.264L70.4221 175.028ZM113.582 98.3485C114.627 97.759 115.972 97.7375 117.035 98.2929C118.099 98.8483 118.849 99.9637 118.962 101.158C119.045 102.033 118.874 103.085 119.556 103.64C120.136 101.612 121.415 99.7916 123.125 98.5575C123.766 100.384 124.406 102.211 125.046 104.037C125.713 103.206 126.467 102.446 127.292 101.772C127.587 101.532 127.909 101.295 128.285 101.242C128.662 101.189 129.1 101.387 129.187 101.757C129.277 102.142 128.973 102.498 128.693 102.778C127.918 103.552 127.143 104.327 126.368 105.1C125.964 105.505 125.503 105.934 124.932 105.961C124.075 106 123.466 105.124 123.212 104.305C122.958 103.485 122.846 102.561 122.238 101.955C121.706 103.302 120.82 104.507 119.693 105.416C119.194 105.818 118.447 106.159 117.954 105.749C117.78 105.604 117.679 105.39 117.608 105.176C117.313 104.288 117.445 103.324 117.433 102.389C117.421 101.453 117.203 100.42 116.446 99.872C115.546 99.2216 114.043 99.3581 113.582 98.3485ZM117.991 70.7138C119.967 70.4733 121.966 70.432 123.949 70.5917C124.802 70.6603 125.705 70.7888 126.358 71.3417C127.01 71.8946 127.245 73.016 126.615 73.5946C123.53 76.4313 121.722 80.6095 121.769 84.8007C122.913 85.5434 124.076 86.2954 125.38 86.6972C126.684 87.0989 128.169 87.1121 129.345 86.4208C130.182 85.9286 130.791 85.1299 131.562 84.539C132.332 83.948 133.436 83.5815 134.262 84.0927C133.215 85.0568 132.167 86.0211 131.12 86.9853C129.868 88.1379 128.313 89.3772 126.656 88.9892C125.781 88.7841 125.076 88.1513 124.263 87.7685C122.64 87.0049 120.736 87.2905 118.983 87.6669C117.229 88.0432 115.4 88.4946 113.671 88.0204C111.942 87.546 110.425 85.7476 110.966 84.038C112.055 85.6312 113.95 86.6412 115.879 86.6562C116.62 86.6618 117.384 86.5203 117.998 86.1054C119.255 85.2559 119.551 83.5629 119.737 82.0575C119.86 81.0534 119.928 79.8838 119.191 79.1913C117.814 77.8992 116.608 76.4249 115.614 74.8192C115.181 74.1191 114.774 73.3008 114.981 72.5038C115.293 71.2998 116.757 70.8641 117.991 70.7138ZM94.7785 60.0165C97.6993 59.2752 100.724 60.5846 103.365 62.0341C103.96 62.3604 104.573 62.7158 104.947 63.2812C105.322 63.8465 105.377 64.6843 104.888 65.1542C104.069 65.9407 102.771 65.1319 101.847 64.4726C100.228 63.3179 98.2832 62.6253 96.299 62.498C95.6608 62.457 94.9894 62.4655 94.427 62.161C93.8648 61.8564 93.4853 61.0966 93.8352 60.5614C94.0388 60.2503 94.4181 60.108 94.7785 60.0165ZM146.574 57.6034C147.154 57.4896 147.845 57.4336 148.247 57.8661C148.7 58.3526 148.473 59.1939 147.971 59.6288C147.468 60.0638 146.787 60.2112 146.147 60.3886C144.209 60.9251 142.387 61.8721 140.834 63.1493C140.237 63.6403 139.53 64.2185 138.785 64.0116C137.997 63.7925 137.699 62.7436 138.003 61.9843C138.307 61.2248 139.015 60.7113 139.712 60.2831C141.816 58.9911 144.152 58.0792 146.574 57.6034Z" fill="#00160A"/>
</svg>
